<!DOCTYPE svg PUBLIC "-//W3C//DTD SVG 1.1//EN" "http://www.w3.org/Graphics/SVG/1.1/DTD/svg11.dtd">
<!-- Uploaded to: SVG Repo, www.svgrepo.com, Transformed by: SVG Repo Mixer Tools -->
<svg width="256px" height="256px" viewBox="0 -16.04 72.617 72.617" xmlns="http://www.w3.org/2000/svg" fill="#000000">
<g id="SVGRepo_bgCarrier" stroke-width="0"/>
<g id="SVGRepo_tracerCarrier" stroke-linecap="round" stroke-linejoin="round" stroke="#26a269" stroke-width="1.0166380000000002"> <g id="Group_58" data-name="Group 58" transform="translate(-621.208 -934.226)"> <g id="Group_57" data-name="Group 57"> <path id="Path_48" data-name="Path 48" d="M688.461,944.951a191.915,191.915,0,0,0-11.136-10.725h-50.3a5.823,5.823,0,0,0-5.817,5.816v18.223A192.8,192.8,0,0,0,631.935,969.4a6.063,6.063,0,0,0,6.014,5.364h49.819a6.064,6.064,0,0,0,6.057-6.057V950.965A6.063,6.063,0,0,0,688.461,944.951Zm-64.253,13.314V940.042a2.82,2.82,0,0,1,2.817-2.816h50.3a2.815,2.815,0,0,1,2.769,2.341H632.367a5.824,5.824,0,0,0-5.817,5.817v15.649A2.816,2.816,0,0,1,624.208,958.265Zm5.342,5.341V945.384a2.821,2.821,0,0,1,2.817-2.817h50.3a2.816,2.816,0,0,1,2.769,2.341H637.949a6.064,6.064,0,0,0-6.057,6.057v15.41A2.815,2.815,0,0,1,629.55,963.606Zm61.275,5.1a3.061,3.061,0,0,1-3.057,3.057H637.949a3.06,3.06,0,0,1-3.057-3.057V950.965a3.06,3.06,0,0,1,3.057-3.057h49.819a3.061,3.061,0,0,1,3.057,3.057Z" fill="#2ec27e"/> <path id="Path_49" data-name="Path 49" d="M662.858,950c-4.952,0-8.981,4.411-8.981,9.834s4.029,9.833,8.981,9.833,8.981-4.411,8.981-9.833S667.81,950,662.858,950Zm0,16.667c-3.3,0-5.981-3.066-5.981-6.833S659.56,953,662.858,953s5.981,3.065,5.981,6.834S666.156,966.67,662.858,966.67Z" fill="#2ec27e"/> <path id="Path_50" data-name="Path 50" d="M681.352,954.732a5.1,5.1,0,1,0,5.1,5.1A5.111,5.111,0,0,0,681.352,954.732Zm0,7.208a2.1,2.1,0,1,1,2.1-2.1A2.107,2.107,0,0,1,681.352,961.94Z" fill="#2ec27e"/> <path id="Path_51" data-name="Path 51" d="M644.717,954.732a5.1,5.1,0,1,0,5.1,5.1A5.11,5.11,0,0,0,644.717,954.732Zm0,7.208a2.1,2.1,0,1,1,2.1-2.1A2.1,2.1,0,0,1,644.717,961.94Z" fill="#2ec27e"/> </g> <path id="Path_52" data-name="Path 52" d="M662.531,962.846c-1.6-.11-2.423-.94-2.478-2.184h1.833a.8.8,0,0,0,.645.784v-1.2c-1.686-.23-2.349-.811-2.349-2.1,0-1.151.884-1.962,2.349-2.063v-.82h.746v.829c1.373.11,2.193.728,2.294,2.027h-1.8a.64.64,0,0,0-.5-.627v1.133c1.428.194,2.386.664,2.386,2.009,0,1.152-.718,2.1-2.386,2.211V964h-.746Zm0-4.321v-1.059c-.378.064-.571.258-.571.525C661.96,958.286,662.107,958.433,662.531,958.525Zm.746,1.852v1.087c.378-.083.553-.295.553-.58C663.83,960.617,663.692,960.478,663.277,960.377Z" fill="#2ec27e"/> </g> </g>
<g id="SVGRepo_iconCarrier"> <g id="Group_58" data-name="Group 58" transform="translate(-621.208 -934.226)"> <g id="Group_57" data-name="Group 57"> <path id="Path_48" data-name="Path 48" d="M688.461,944.951a191.915,191.915,0,0,0-11.136-10.725h-50.3a5.823,5.823,0,0,0-5.817,5.816v18.223A192.8,192.8,0,0,0,631.935,969.4a6.063,6.063,0,0,0,6.014,5.364h49.819a6.064,6.064,0,0,0,6.057-6.057V950.965A6.063,6.063,0,0,0,688.461,944.951Zm-64.253,13.314V940.042a2.82,2.82,0,0,1,2.817-2.816h50.3a2.815,2.815,0,0,1,2.769,2.341H632.367a5.824,5.824,0,0,0-5.817,5.817v15.649A2.816,2.816,0,0,1,624.208,958.265Zm5.342,5.341V945.384a2.821,2.821,0,0,1,2.817-2.817h50.3a2.816,2.816,0,0,1,2.769,2.341H637.949a6.064,6.064,0,0,0-6.057,6.057v15.41A2.815,2.815,0,0,1,629.55,963.606Zm61.275,5.1a3.061,3.061,0,0,1-3.057,3.057H637.949a3.06,3.06,0,0,1-3.057-3.057V950.965a3.06,3.06,0,0,1,3.057-3.057h49.819a3.061,3.061,0,0,1,3.057,3.057Z" fill="#2ec27e"/> <path id="Path_49" data-name="Path 49" d="M662.858,950c-4.952,0-8.981,4.411-8.981,9.834s4.029,9.833,8.981,9.833,8.981-4.411,8.981-9.833S667.81,950,662.858,950Zm0,16.667c-3.3,0-5.981-3.066-5.981-6.833S659.56,953,662.858,953s5.981,3.065,5.981,6.834S666.156,966.67,662.858,966.67Z" fill="#2ec27e"/> <path id="Path_50" data-name="Path 50" d="M681.352,954.732a5.1,5.1,0,1,0,5.1,5.1A5.111,5.111,0,0,0,681.352,954.732Zm0,7.208a2.1,2.1,0,1,1,2.1-2.1A2.107,2.107,0,0,1,681.352,961.94Z" fill="#2ec27e"/> <path id="Path_51" data-name="Path 51" d="M644.717,954.732a5.1,5.1,0,1,0,5.1,5.1A5.11,5.11,0,0,0,644.717,954.732Zm0,7.208a2.1,2.1,0,1,1,2.1-2.1A2.1,2.1,0,0,1,644.717,961.94Z" fill="#2ec27e"/> </g> <path id="Path_52" data-name="Path 52" d="M662.531,962.846c-1.6-.11-2.423-.94-2.478-2.184h1.833a.8.8,0,0,0,.645.784v-1.2c-1.686-.23-2.349-.811-2.349-2.1,0-1.151.884-1.962,2.349-2.063v-.82h.746v.829c1.373.11,2.193.728,2.294,2.027h-1.8a.64.64,0,0,0-.5-.627v1.133c1.428.194,2.386.664,2.386,2.009,0,1.152-.718,2.1-2.386,2.211V964h-.746Zm0-4.321v-1.059c-.378.064-.571.258-.571.525C661.96,958.286,662.107,958.433,662.531,958.525Zm.746,1.852v1.087c.378-.083.553-.295.553-.58C663.83,960.617,663.692,960.478,663.277,960.377Z" fill="#2ec27e"/> </g> </g>
</svg>